<svg width="456" height="456" viewBox="0 0 456 456" fill="none" xmlns="http://www.w3.org/2000/svg">
<g clip-path="url(#clip0)">
<path d="M361.877 71.35L381.797 59.849L347.243 0L268.173 45.651L362.025 70.799L361.877 71.35Z" fill="white"/>
<path d="M268.333 125.357L325.833 92.1599L231.982 67.0119L232.129 66.4609L174.629 99.6589L268.481 124.807L268.333 125.357Z" fill="white"/>
<path d="M174.788 179.366L232.289 146.167L138.437 121.02L138.584 120.47L81.0842 153.667L174.936 178.815L174.788 179.366Z" fill="white"/>
<path d="M365.582 240.503H299.672L299.832 240.664L248.135 292.361H313.724L365.582 240.503Z" fill="white"/>
<path d="M407.687 240.503L407.848 240.664L356.151 292.361H430.203V240.503H407.687Z" fill="white"/>
<path d="M205.709 292.361L257.566 240.503H191.655L191.816 240.664L140.118 292.361H205.709Z" fill="white"/>
<path d="M430.203 322.361H58.2471V455.324H430.203V322.361Z" fill="white"/>
<path d="M58.2471 292.361H97.6921L149.55 240.503H68.8941L138.744 200.176L44.8931 175.028L45.0401 174.477L25.1201 185.978L58.2471 243.356V292.361Z" fill="white"/>
</g>
<defs>
<clipPath id="clip0">
<rect width="455.323" height="455.323" fill="white"/>
</clipPath>
</defs>
</svg>
